# Blender v2.92.0 OBJ File: 'katana1.blend'
# www.blender.org
mtllib katana_final.mtl
o Cylinder
v 0.040850 2.934306 -0.424186
v 0.520122 -2.919021 -0.359970
v 0.420687 2.934263 -0.277523
v 0.752393 -3.014729 -0.113344
v 0.553456 2.934339 0.032081
v 0.696535 -3.067356 0.199108
v 0.362109 2.934376 0.322296
v 0.362296 -3.043442 0.403058
v -0.040869 2.934308 0.424184
v 0.072056 -2.977164 0.411383
v -0.259556 -2.880497 0.201634
v -0.420691 2.934253 0.277520
v -0.299728 -2.812806 -0.091859
v -0.553454 2.934341 -0.032093
v -0.079782 -2.804853 -0.342277
v -0.362107 2.934379 -0.322295
v 0.362256 0.030999 -0.322975
v 0.538161 0.038760 -0.069121
v 0.415619 -0.045888 0.293439
v -0.372013 0.056340 0.315115
v -0.549533 0.152466 0.029870
v -0.412849 0.137800 -0.275271
v 0.093693 -2.794150 -0.416690
vt 0.999649 0.505634
vt 0.978871 1.000000
vt 0.891934 0.755787
vt 0.863183 1.000000
vt 0.780467 0.755787
vt 0.738032 1.000000
vt 0.637416 0.755787
vt 0.488324 1.000000
vt 0.444634 0.498959
vt 0.387838 0.755787
vt 0.363181 1.000000
vt 0.265219 0.755787
vt 0.238028 1.000000
vt 0.141213 0.755787
vt 0.113173 1.000000
vt 0.017216 0.525709
vt 0.016372 0.267569
vt 0.232869 0.016334
vt 0.483628 0.232438
vt 0.222825 0.500000
vt 0.106849 0.500000
vt 0.338146 0.500000
vt 0.553320 0.500000
vt 0.679653 0.500000
vt 0.801874 0.500000
vt 0.921582 0.500000
vt 0.613173 1.000000
vt 0.097049 0.427496
vt 0.267123 0.483667
vt 0.402951 0.072505
vt 0.427464 0.402943
vt 0.072534 0.097059
vt 0.018014 1.000000
vt 0.727660 0.487800
vt 0.860891 0.456517
vt 0.972334 0.325189
vt 0.961818 0.149838
vt 0.604362 0.433385
vt 0.827114 0.028657
vt 0.516538 0.290214
vt 0.669386 0.026589
vt 0.550559 0.126566
vn 0.3139 0.0017 -0.9494
vn 0.8220 -0.0076 -0.5694
vn 0.9484 -0.0161 0.3168
vn 0.2970 0.0036 0.9549
vn -0.2574 -0.0070 0.9663
vn -0.8501 -0.0075 0.5265
vn -0.9128 -0.0104 -0.4084
vn -0.3225 -0.0101 -0.9465
vn -0.0000 1.0000 0.0001
vn -0.7484 -0.0697 -0.6596
vn -0.9894 -0.0881 0.1151
vn -0.5448 -0.0532 0.8369
vn 0.5219 0.0219 0.8527
vn 0.9803 0.0661 0.1864
vn 0.7363 0.0479 -0.6749
vn 0.3602 0.0074 -0.9328
vn 0.9190 0.0089 -0.3941
vn 0.8348 0.0097 0.5504
vn 0.2451 -0.0050 0.9695
vn -0.3602 0.0061 0.9329
vn -0.9190 0.0075 0.3941
vn -0.8348 0.0059 -0.5505
vn 0.0003 1.0000 0.0003
vn -0.0002 1.0000 -0.0003
vn 0.0002 1.0000 -0.0003
vn -0.0003 1.0000 0.0004
vn 0.0000 1.0000 -0.0001
vn -0.2451 -0.0035 -0.9695
vn -0.2638 -0.9567 -0.1228
vn -0.1888 -0.9623 -0.1958
vn -0.1175 -0.9070 -0.4044
vn -0.1886 -0.9623 -0.1962
vn -0.2242 -0.9701 -0.0927
vn -0.1886 -0.9623 -0.1961
vn -0.3929 -0.0235 -0.9193
vn -0.9120 -0.0602 -0.4056
vn -0.8557 -0.0527 0.5148
vn 0.0368 0.0359 0.9987
vn 0.9390 0.0768 0.3353
vn 0.8192 0.0657 -0.5697
vn 0.1375 0.0198 -0.9903
usemtl Material.003
s off
f 23/1/1 1/2/1 17/3/1
f 17/3/2 3/4/2 18/5/2
f 18/5/3 5/6/3 19/7/3
f 19/7/4 9/8/4 10/9/4
f 10/9/5 9/8/5 20/10/5
f 20/10/6 12/11/6 21/12/6
f 21/12/7 14/13/7 22/14/7
f 22/14/8 16/15/8 23/16/8
f 14/17/9 9/18/9 5/19/9
f 13/20/10 22/14/10 15/21/10
f 21/12/11 13/20/11 11/22/11
f 20/10/12 11/22/12 10/9/12
f 19/7/13 8/23/13 6/24/13
f 18/5/14 6/24/14 4/25/14
f 2/26/15 17/3/15 4/25/15
f 17/3/16 1/2/16 3/4/16
f 18/5/17 3/4/17 5/6/17
f 19/7/18 5/6/18 7/27/18
f 19/7/19 7/27/19 9/8/19
f 20/10/20 9/8/20 12/11/20
f 21/12/21 12/11/21 14/13/21
f 22/14/22 14/13/22 16/15/22
f 16/28/23 14/17/23 1/29/23
f 9/18/24 7/30/24 5/19/24
f 3/31/25 1/29/25 5/19/25
f 14/17/26 12/32/26 9/18/26
f 1/29/27 14/17/27 5/19/27
f 23/16/28 16/15/28 1/33/28
f 23/34/29 2/35/29 4/36/29
f 4/36/30 6/37/30 15/38/30
f 23/34/31 4/36/31 15/38/31
f 6/37/32 8/39/32 13/40/32
f 15/38/32 6/37/32 13/40/32
f 8/39/33 10/41/33 11/42/33
f 11/42/34 13/40/34 8/39/34
f 15/21/35 22/14/35 23/16/35
f 13/20/36 21/12/36 22/14/36
f 20/10/37 21/12/37 11/22/37
f 19/7/38 10/9/38 8/23/38
f 18/5/39 19/7/39 6/24/39
f 4/25/40 17/3/40 18/5/40
f 2/26/41 23/1/41 17/3/41
o Cylinder.001
v -0.028223 2.957214 -0.684375
v 0.028225 3.189773 -0.684375
v 0.513269 2.957214 -0.604612
v 0.548097 3.189773 -0.593381
v 0.995966 2.957214 -0.343286
v 1.026433 3.189773 -0.308897
v 1.121090 2.957214 -0.000000
v 1.121090 3.189773 -0.000000
v 0.995966 2.957214 0.343286
v 1.026433 3.189773 0.308897
v 0.513269 2.957214 0.604612
v 0.548097 3.189773 0.593381
v -0.028223 2.957214 0.684375
v 0.028225 3.189773 0.684375
v -0.702408 2.957214 0.547103
v -0.752368 3.189773 0.522366
v -1.071560 2.957214 0.208559
v -1.083023 3.189773 0.185760
v -1.121090 2.957214 -0.000001
v -1.107050 3.189773 -0.150216
v -1.071560 2.957214 -0.208559
v -0.702408 2.957214 -0.547103
v -0.752368 3.189773 -0.522366
vt 0.988143 1.000000
vt 0.924683 0.500000
vt 0.990983 0.500000
vt 0.919067 1.000000
vt 0.832669 0.500000
vt 0.823790 1.000000
vt 0.750000 0.500000
vt 0.750000 1.000000
vt 0.667331 0.500000
vt 0.676210 1.000000
vt 0.575317 0.500000
vt 0.580933 1.000000
vt 0.495903 0.500000
vt 0.503903 1.000000
vt 0.395230 0.500000
vt 0.386035 1.000000
vt 0.299683 0.500000
vt 0.294067 1.000000
vt 0.250000 0.500000
vt 0.214657 1.000000
vt 0.200318 0.500000
vt 0.104770 0.500000
vt 0.018191 0.302363
vt 0.095572 0.072627
vt 0.459792 0.145201
vt 0.113965 1.000000
vt 0.018433 0.500000
vt 0.953380 0.366345
vt 0.743861 0.013266
vt 0.522667 0.176622
vt 0.255848 0.487076
vt 0.095572 0.427373
vt 0.366318 0.458649
vt 0.490000 0.250000
vt 0.459792 0.354799
vt 0.255848 0.012924
vt 0.366318 0.041351
vt 0.020213 0.184712
vt 0.012817 1.000000
vt 0.990000 0.250000
vt 0.953380 0.133655
vt 0.858863 0.037366
vt 0.510000 0.250000
vt 0.522667 0.323378
vt 0.607217 0.065203
vt 0.743861 0.486734
vt 0.607217 0.434797
vt 0.858863 0.462634
vn 0.1456 -0.0354 -0.9887
vn 0.4759 -0.0288 -0.8790
vn 0.9371 -0.0723 -0.3416
vn 0.9395 0.0000 0.3425
vn 0.4750 0.0675 0.8774
vn 0.1457 0.0259 0.9890
vn -0.1993 0.0484 0.9787
vn -0.6744 -0.0667 0.7354
vn -0.9726 -0.0253 0.2310
vn -0.9690 -0.0901 -0.2301
vn -0.6736 0.0815 -0.7346
vn 0.0000 1.0000 0.0000
vn -0.1991 0.0613 -0.9781
vn 0.0000 -1.0000 0.0000
vn 0.1724 0.0217 -0.9848
vn 0.5102 0.0600 -0.8579
vn 0.9561 0.0000 -0.2930
vn 0.9529 -0.0817 0.2920
vn 0.5109 -0.0350 0.8590
vn 0.1723 -0.0418 0.9842
vn -0.2028 0.0604 0.9773
vn -0.7130 0.0335 0.7004
vn -0.9919 0.1057 0.0709
vn -0.7215 -0.0819 -0.6876
vn -0.2030 0.0493 -0.9779
usemtl Material.005
s off
f 25/43/42 26/44/42 24/45/42
f 27/46/43 28/47/43 26/44/43
f 29/48/44 30/49/44 28/47/44
f 31/50/45 32/51/45 30/49/45
f 33/52/46 34/53/46 32/51/46
f 35/54/47 36/55/47 34/53/47
f 37/56/48 38/57/48 36/55/48
f 39/58/49 40/59/49 38/57/49
f 41/60/50 42/61/50 40/59/50
f 43/62/51 44/63/51 42/61/51
f 43/62/52 45/64/52 44/63/52
f 43/65/53 39/66/53 33/67/53
f 46/68/54 24/69/54 45/64/54
f 28/70/55 36/71/55 40/72/55
f 25/43/56 27/46/56 26/44/56
f 27/46/57 29/48/57 28/47/57
f 29/48/58 31/50/58 30/49/58
f 31/50/59 33/52/59 32/51/59
f 33/52/60 35/54/60 34/53/60
f 35/54/61 37/56/61 36/55/61
f 37/56/62 39/58/62 38/57/62
f 39/58/63 41/60/63 40/59/63
f 41/60/64 43/62/64 42/61/64
f 43/62/65 46/68/65 45/64/65
f 25/73/53 46/74/53 27/75/53
f 31/76/53 29/77/53 33/67/53
f 46/74/53 43/65/53 27/75/53
f 39/66/53 37/78/53 33/67/53
f 37/78/53 35/79/53 33/67/53
f 29/77/53 27/75/53 33/67/53
f 43/65/53 41/80/53 39/66/53
f 27/75/53 43/65/53 33/67/53
f 46/68/66 25/81/66 24/69/66
f 28/70/55 30/82/55 32/83/55
f 32/83/55 34/84/55 36/71/55
f 40/72/55 42/85/55 44/86/55
f 36/71/55 38/87/55 40/72/55
f 40/72/55 44/86/55 24/88/55
f 44/86/55 45/89/55 24/88/55
f 24/88/55 26/90/55 28/70/55
f 28/70/55 32/83/55 36/71/55
f 24/88/55 28/70/55 40/72/55
o Cube_Cube.002
v -0.488698 3.215400 0.000000
v 0.488698 3.215400 0.088083
v -0.038883 18.598417 0.000045
v 0.488698 3.215400 -0.088083
v -0.488698 10.816338 0.000000
v 0.488698 10.816338 0.088083
v 0.488698 10.816338 -0.088083
v -0.276059 15.763571 0.000045
v 0.701336 15.763573 -0.088038
v 0.911082 18.535496 0.088128
v 0.911082 18.535496 -0.088038
v -0.162899 3.215400 0.088083
v 0.314345 19.020271 0.000045
v 0.966545 19.274000 0.000045
v -0.162899 3.215400 -0.088083
v -0.162899 10.816339 -0.088083
v -0.162899 10.816339 0.088083
v 0.049739 15.763571 -0.088038
v 0.049739 15.763571 0.088128
v 0.701336 15.763575 0.088128
v 0.585284 18.535496 -0.088038
v 0.259485 18.535496 -0.088038
v 0.259485 18.535496 0.088128
v 0.585284 18.535496 0.088128
vt 0.625000 0.250157
vt 0.613704 0.166667
vt 0.613704 0.250000
vt 0.613704 0.500000
vt 0.625000 0.499843
vt 0.613703 0.666667
vt 0.613703 0.750000
vt 0.625000 0.666667
vt 0.125000 0.666667
vt 0.125000 0.750000
vt 0.375000 0.666667
vt 0.493431 0.666667
vt 0.375000 0.750000
vt 0.493431 0.250000
vt 0.375000 0.250000
vt 0.375000 0.500000
vt 0.493431 0.083333
vt 0.375000 0.083333
vt 0.493431 0.750000
vt 0.570514 0.750000
vt 0.493431 0.500000
vt 0.570514 0.500000
vt 0.570514 0.250000
vt 0.570514 0.666667
vt 0.613703 0.000000
vt 0.570514 0.000000
vt 0.570514 0.083333
vt 0.613703 0.083333
vt 0.493431 0.000000
vt 0.375000 0.000000
vt 0.125000 0.500000
vt 0.613704 0.583333
vt 0.625000 0.000000
vt 0.625000 0.083333
vn 0.0000 0.1184 0.9930
vn 0.9972 -0.0749 0.0000
vn -0.2385 0.1997 -0.9504
vn 0.0000 -1.0000 0.0000
vn -0.2610 -0.0000 -0.9653
vn 1.0000 0.0000 0.0000
vn 0.0000 0.0000 1.0000
vn -0.2610 0.0112 -0.9653
vn 0.9991 -0.0429 0.0000
vn -0.2609 0.0218 -0.9651
vn 0.9971 -0.0755 0.0000
vn -0.2609 0.0218 0.9651
vn -0.0000 -0.0000 -1.0000
vn -0.2610 0.0112 0.9653
vn -0.2610 0.0000 0.9653
vn -0.0000 0.1184 -0.9930
vn -0.0000 0.1788 -0.9839
vn -0.2385 0.1997 0.9504
vn 0.0000 0.1788 0.9839
vn -0.2790 0.0211 -0.9601
vn -0.2790 0.0211 0.9601
vn -0.0573 0.1474 -0.9874
vn -0.0573 0.1474 0.9874
usemtl Material.004
s off
f 60/91/67 70/92/67 56/93/67
f 56/93/68 57/94/68 60/95/68
f 68/96/69 49/97/69 59/98/69
f 58/99/70 47/100/70 61/101/70
f 62/102/71 61/101/71 47/103/71
f 52/104/72 48/105/72 50/106/72
f 63/107/73 58/108/73 48/105/73
f 62/102/74 51/109/74 54/110/74
f 52/104/75 53/111/75 55/112/75
f 66/113/73 63/107/73 52/104/73
f 64/114/76 54/110/76 49/97/76
f 56/93/77 66/113/77 55/112/77
f 49/115/78 54/116/78 65/117/78
f 69/118/73 65/117/73 66/113/73
f 55/112/79 64/114/79 68/96/79
f 54/116/80 51/119/80 63/107/80
f 53/111/79 62/102/79 55/112/79
f 51/119/81 47/120/81 58/108/81
f 53/111/79 50/106/79 61/101/79
f 50/106/70 48/121/70 58/99/70
f 57/94/82 67/122/82 60/95/82
f 67/122/83 68/96/83 59/98/83
f 49/123/84 69/118/84 59/124/84
f 59/124/85 69/118/85 70/92/85
f 62/102/71 47/103/71 51/109/71
f 52/104/72 50/106/72 53/111/72
f 63/107/73 48/105/73 52/104/73
f 62/102/74 54/110/74 64/114/74
f 52/104/75 55/112/75 66/113/75
f 64/114/86 49/97/86 68/96/86
f 56/93/77 55/112/77 57/94/77
f 70/92/73 66/113/73 56/93/73
f 49/115/87 65/117/87 69/118/87
f 69/118/73 66/113/73 70/92/73
f 55/112/79 67/122/79 57/94/79
f 55/112/79 68/96/79 67/122/79
f 54/116/80 63/107/80 65/117/80
f 65/117/73 63/107/73 66/113/73
f 62/102/79 64/114/79 55/112/79
f 51/119/81 58/108/81 63/107/81
f 53/111/79 61/101/79 62/102/79
f 50/106/70 58/99/70 61/101/70
f 67/122/88 59/98/88 60/95/88
f 59/124/89 70/92/89 60/91/89
